<svg 
 xmlns="http://www.w3.org/2000/svg"
 xmlns:xlink="http://www.w3.org/1999/xlink"
 width="465px" height="83px">
<path fill-rule="evenodd"  fill="rgb(51, 51, 51)"
 d="M460.013,25.546 C459.202,24.194 458.121,22.681 456.877,21.113 C427.144,22.681 423.684,22.789 421.251,23.654 C421.035,22.627 420.170,20.140 419.629,18.734 C420.927,18.518 422.278,17.383 424.062,15.653 C425.955,13.869 432.063,7.219 436.010,0.678 L441.038,2.840 C437.145,8.300 432.550,13.544 428.117,17.761 L453.255,16.734 C450.931,14.139 448.444,11.544 446.119,9.382 L450.012,6.733 C455.093,11.328 461.418,17.977 464.230,22.410 L460.013,25.546 ZM419.538,64.550 C419.155,64.482 418.792,64.447 418.450,64.447 C417.889,64.447 417.491,64.567 417.259,64.807 C417.026,65.046 416.910,65.494 416.910,66.151 L416.910,67.158 L419.035,67.158 L419.035,68.595 L416.910,68.595 L416.910,78.061 L415.072,78.061 L415.072,68.595 L413.440,68.595 L413.440,67.158 L415.072,67.158 L415.072,65.997 C415.072,65.265 415.137,64.721 415.267,64.365 C415.445,63.886 415.758,63.498 416.207,63.200 C416.655,62.902 417.283,62.753 418.090,62.753 C418.611,62.753 419.186,62.815 419.815,62.938 L419.538,64.550 ZM408.452,77.886 C408.082,77.674 407.822,77.395 407.671,77.050 C407.521,76.704 407.446,75.977 407.446,74.868 L407.446,68.595 L406.090,68.595 L406.090,67.158 L407.446,67.158 L407.446,64.457 L409.283,63.349 L409.283,67.158 L411.142,67.158 L411.142,68.595 L409.283,68.595 L409.283,74.971 C409.283,75.498 409.316,75.837 409.381,75.987 C409.446,76.138 409.552,76.257 409.699,76.346 C409.846,76.435 410.057,76.480 410.330,76.480 C410.536,76.480 410.806,76.456 411.142,76.408 L411.408,78.040 C410.888,78.150 410.423,78.205 410.012,78.205 C409.341,78.205 408.821,78.098 408.452,77.886 ZM368.480,25.113 C367.778,22.032 365.940,17.004 363.993,13.220 L368.535,11.814 C370.535,15.545 372.589,20.356 373.292,23.492 L368.480,25.113 ZM394.754,11.598 L400.106,13.058 C398.160,17.275 395.781,22.140 393.781,25.167 L389.456,23.762 C391.294,20.518 393.565,15.382 394.754,11.598 ZM384.266,50.792 L379.076,50.792 L379.076,32.412 L357.668,32.412 L357.668,27.330 L379.076,27.330 L379.076,9.598 L360.479,9.598 L360.479,4.678 L402.863,4.678 L402.863,9.598 L384.266,9.598 L384.266,27.330 L405.945,27.330 L405.945,32.412 L384.266,32.412 L384.266,50.792 ZM353.807,77.640 C353.002,78.085 352.124,78.307 351.173,78.307 C349.647,78.307 348.413,77.818 347.472,76.839 C346.531,75.860 346.060,74.451 346.060,72.609 C346.060,70.590 346.621,69.095 347.744,68.123 C348.682,67.315 349.825,66.911 351.173,66.911 C352.672,66.911 353.897,67.402 354.849,68.385 C355.800,69.367 356.276,70.724 356.276,72.455 C356.276,73.858 356.065,74.962 355.644,75.766 C355.223,76.571 354.611,77.195 353.807,77.640 ZM353.457,69.483 C352.845,68.788 352.083,68.441 351.173,68.441 C350.249,68.441 349.482,68.787 348.873,69.478 C348.264,70.169 347.960,71.213 347.960,72.609 C347.960,74.006 348.264,75.051 348.873,75.746 C349.482,76.441 350.249,76.788 351.173,76.788 C352.090,76.788 352.853,76.439 353.463,75.741 C354.072,75.042 354.376,73.978 354.376,72.548 C354.376,71.199 354.070,70.178 353.457,69.483 ZM313.115,44.575 L327.765,44.575 L327.765,32.303 L317.386,32.303 L317.386,27.925 L343.389,27.925 L343.389,32.303 L332.793,32.303 L332.793,44.575 L347.227,44.575 L347.227,49.008 L313.115,49.008 L313.115,44.575 ZM342.362,26.843 C340.145,24.411 335.550,20.302 332.144,17.329 L335.172,14.572 C338.523,17.221 343.173,21.221 345.551,23.546 L342.362,26.843 ZM329.279,16.247 C326.468,20.356 321.927,24.681 318.034,27.384 C317.494,26.519 315.926,24.411 315.061,23.492 C318.737,21.329 322.575,17.923 325.008,14.680 L329.279,16.247 ZM341.821,11.814 L319.548,11.814 L319.548,17.004 L314.953,17.004 L314.953,7.490 L328.576,7.490 C327.981,5.760 327.117,3.759 326.414,2.192 L331.225,1.056 C332.144,3.111 333.334,5.652 333.982,7.490 L346.578,7.490 L346.578,16.626 L341.821,16.626 L341.821,11.814 ZM313.169,24.735 L313.980,29.222 C312.142,29.925 310.195,30.628 308.357,31.276 L308.357,44.629 C308.357,47.116 307.871,48.468 306.465,49.225 C305.006,50.035 302.843,50.198 299.437,50.198 C299.329,49.008 298.681,46.846 298.086,45.548 C300.194,45.602 302.249,45.602 302.843,45.602 C303.492,45.602 303.762,45.386 303.762,44.629 L303.762,32.952 L298.140,34.952 L297.113,30.033 C298.951,29.492 301.275,28.790 303.762,27.925 L303.762,15.869 L297.707,15.869 L297.707,11.220 L303.762,11.220 L303.762,1.164 L308.357,1.164 L308.357,11.220 L313.493,11.220 L313.493,15.869 L308.357,15.869 L308.357,26.411 L313.169,24.735 ZM298.903,67.810 C299.656,68.409 300.138,69.259 300.351,70.361 L298.554,70.638 C298.383,69.906 298.080,69.355 297.645,68.985 C297.211,68.616 296.685,68.431 296.069,68.431 C295.139,68.431 294.382,68.764 293.801,69.432 C293.219,70.099 292.928,71.155 292.928,72.599 C292.928,74.064 293.208,75.128 293.770,75.792 C294.331,76.456 295.063,76.788 295.967,76.788 C296.692,76.788 297.298,76.566 297.784,76.121 C298.270,75.676 298.578,74.991 298.708,74.067 L300.525,74.303 C300.327,75.556 299.818,76.536 299.001,77.245 C298.183,77.953 297.178,78.307 295.987,78.307 C294.495,78.307 293.296,77.820 292.389,76.844 C291.482,75.869 291.028,74.471 291.028,72.650 C291.028,71.473 291.224,70.443 291.614,69.560 C292.004,68.677 292.598,68.015 293.395,67.573 C294.192,67.132 295.060,66.911 295.998,66.911 C297.182,66.911 298.150,67.211 298.903,67.810 ZM250.181,42.359 L274.778,40.575 C272.778,37.493 270.615,34.466 268.723,31.817 L273.319,29.384 C277.806,35.385 283.104,43.116 285.753,48.089 L280.887,51.009 C280.130,49.387 278.995,47.441 277.697,45.332 C249.316,47.711 245.910,47.873 243.423,48.846 C243.099,47.711 242.234,44.846 241.477,43.224 C242.828,42.899 244.018,41.548 245.693,39.440 C247.207,37.710 251.316,31.817 254.613,25.330 L238.828,25.330 L238.828,20.194 L286.780,20.194 L286.780,25.330 L261.641,25.330 C258.290,31.547 254.181,37.493 250.181,42.359 ZM244.774,5.165 L281.211,5.165 L281.211,10.301 L244.774,10.301 L244.774,5.165 ZM239.395,78.061 L237.547,78.061 L237.547,63.010 L239.395,63.010 L239.395,78.061 ZM229.766,76.788 C230.492,76.788 231.098,76.566 231.584,76.121 C232.070,75.676 232.378,74.991 232.508,74.067 L234.325,74.303 C234.126,75.556 233.618,76.536 232.800,77.245 C231.982,77.953 230.978,78.307 229.787,78.307 C228.295,78.307 227.095,77.820 226.188,76.844 C225.281,75.869 224.828,74.471 224.828,72.650 C224.828,71.473 225.023,70.443 225.413,69.560 C225.803,68.677 226.397,68.015 227.195,67.573 C227.992,67.132 228.859,66.911 229.797,66.911 C230.981,66.911 231.950,67.211 232.703,67.810 C233.456,68.409 233.938,69.259 234.150,70.361 L232.354,70.638 C232.182,69.906 231.880,69.355 231.445,68.985 C231.010,68.616 230.485,68.431 229.869,68.431 C228.938,68.431 228.182,68.764 227.600,69.432 C227.018,70.099 226.727,71.155 226.727,72.599 C226.727,74.064 227.008,75.128 227.569,75.792 C228.130,76.456 228.863,76.788 229.766,76.788 ZM212.925,50.684 C212.601,49.279 211.736,46.954 211.033,45.657 C214.439,45.873 218.169,45.819 219.250,45.765 C220.277,45.711 220.656,45.386 220.656,44.359 L220.656,9.057 L186.057,9.057 L186.057,41.278 C189.571,37.818 192.166,33.168 194.058,27.654 C191.679,24.519 189.138,21.275 186.814,18.518 L189.733,15.599 C191.625,17.761 193.625,20.194 195.518,22.627 C196.383,19.329 197.085,15.815 197.572,12.139 L202.059,12.625 C201.248,17.815 200.275,22.627 198.923,27.006 C200.924,29.763 202.762,32.358 204.005,34.466 L200.816,37.926 C199.896,36.196 198.599,34.196 197.139,32.033 C195.247,36.845 192.760,41.007 189.733,44.251 C188.976,43.602 187.192,42.359 186.057,41.656 L186.057,50.684 L181.029,50.684 L181.029,4.300 L225.683,4.300 L225.683,44.413 C225.683,47.441 224.927,48.954 222.980,49.765 C220.980,50.576 217.845,50.684 212.925,50.684 ZM175.053,78.061 L173.318,71.531 L172.897,69.673 L170.690,78.061 L168.759,78.061 L165.423,67.158 L167.332,67.158 L169.067,73.451 L169.714,75.792 C169.741,75.676 169.930,74.926 170.279,73.544 L172.014,67.158 L173.913,67.158 L175.546,73.482 L176.090,75.566 L176.716,73.461 L178.585,67.158 L180.381,67.158 L176.973,78.061 L175.053,78.061 ZM166.317,33.331 L165.236,32.898 L165.236,50.468 L160.425,50.468 L160.425,48.738 L148.369,48.738 L148.369,50.630 L143.774,50.630 L143.774,32.952 C142.963,33.331 142.206,33.709 141.395,34.033 C141.071,33.385 140.530,32.574 139.990,31.817 L139.990,31.871 L133.665,31.871 L133.665,40.413 L140.368,38.845 L140.855,43.278 C133.448,45.170 125.609,47.062 119.771,48.414 L118.906,43.548 C119.717,43.386 120.582,43.224 121.501,43.062 L121.501,24.843 L125.609,24.843 L125.609,42.197 L129.177,41.386 L129.177,20.302 L121.663,20.302 L121.663,3.327 L139.503,3.327 L139.503,17.166 C143.558,13.220 146.963,7.381 148.856,1.164 L153.721,2.354 C153.235,3.759 152.694,5.165 152.099,6.516 L161.290,6.516 L162.155,6.300 L165.344,7.652 C163.668,13.274 160.965,18.085 157.613,22.086 C160.911,25.059 164.804,27.546 169.399,29.168 C168.426,30.087 166.966,32.087 166.317,33.331 ZM148.369,44.413 L160.425,44.413 L160.425,35.439 L148.369,35.439 L148.369,44.413 ZM134.854,7.652 L126.042,7.652 L126.042,15.977 L134.854,15.977 L134.854,7.652 ZM147.126,15.761 C145.828,17.653 144.369,19.383 142.963,20.843 C142.206,20.032 140.638,18.734 139.503,17.869 L139.503,20.302 L133.665,20.302 L133.665,27.438 L139.990,27.438 L139.990,29.655 C144.044,27.925 147.991,25.330 151.396,21.978 C149.667,19.924 148.315,17.815 147.126,15.761 ZM159.127,10.787 L150.099,10.787 L149.612,11.760 C150.856,14.085 152.370,16.410 154.316,18.680 C156.262,16.301 157.884,13.653 159.127,10.787 ZM154.478,25.438 C152.207,27.654 149.667,29.600 147.018,31.168 L161.938,31.168 C159.127,29.546 156.640,27.546 154.478,25.438 ZM120.360,63.010 L120.360,78.061 L118.645,78.061 L118.645,76.685 C117.954,77.767 116.938,78.307 115.596,78.307 C114.727,78.307 113.928,78.068 113.199,77.589 C112.470,77.110 111.905,76.441 111.505,75.581 C111.104,74.723 110.904,73.735 110.904,72.620 C110.904,71.531 111.086,70.544 111.448,69.658 C111.811,68.771 112.355,68.092 113.081,67.620 C113.806,67.147 114.617,66.911 115.514,66.911 C116.171,66.911 116.756,67.050 117.270,67.327 C117.783,67.604 118.200,67.965 118.522,68.410 L118.522,63.010 L120.360,63.010 ZM117.814,69.488 C117.239,68.790 116.530,68.441 115.689,68.441 C114.867,68.441 114.181,68.776 113.630,69.447 C113.079,70.118 112.804,71.175 112.804,72.620 C112.804,74.016 113.098,75.060 113.687,75.751 C114.275,76.442 114.970,76.788 115.771,76.788 C116.578,76.788 117.265,76.458 117.829,75.797 C118.394,75.137 118.676,74.129 118.676,72.774 C118.676,71.281 118.389,70.186 117.814,69.488 ZM98.842,39.007 L103.437,37.710 C105.600,40.845 108.032,45.062 108.897,47.873 L103.978,49.333 C103.167,46.630 100.950,42.197 98.842,39.007 ZM97.815,20.032 L93.111,20.032 L93.111,17.599 L84.462,17.599 L84.462,14.463 L93.111,14.463 L93.111,12.139 L86.138,12.139 L86.138,9.057 L93.111,9.057 L93.111,6.841 L85.002,6.841 L85.002,3.705 L93.111,3.705 L93.111,1.164 L97.815,1.164 L97.815,3.705 L106.410,3.705 L106.410,6.841 L97.815,6.841 L97.815,9.057 L105.491,9.057 L105.491,12.139 L97.815,12.139 L97.815,14.463 L107.384,14.463 L107.384,17.599 L97.815,17.599 L97.815,20.032 ZM74.623,20.032 L69.973,20.032 L69.973,17.491 L60.999,17.491 L60.999,14.355 L69.973,14.355 L69.973,12.139 L62.946,12.139 L62.946,9.057 L69.973,9.057 L69.973,6.841 L61.702,6.841 L61.702,3.705 L69.973,3.705 L69.973,1.164 L74.623,1.164 L74.623,3.705 L82.029,3.705 L82.029,6.841 L74.623,6.841 L74.623,9.057 L81.326,9.057 L81.326,12.139 L74.623,12.139 L74.623,14.355 L82.678,14.355 L82.678,17.491 L74.623,17.491 L74.623,20.032 ZM69.865,39.926 C68.730,43.008 67.216,46.954 65.324,49.495 L60.945,47.062 C62.891,44.792 64.567,41.115 65.540,38.142 L69.865,39.926 ZM61.427,64.457 L63.265,63.349 L63.265,67.158 L65.123,67.158 L65.123,68.595 L63.265,68.595 L63.265,74.971 C63.265,75.498 63.297,75.837 63.362,75.987 C63.427,76.138 63.533,76.257 63.680,76.346 C63.827,76.435 64.038,76.480 64.312,76.480 C64.517,76.480 64.787,76.456 65.123,76.408 L65.390,78.040 C64.869,78.150 64.404,78.205 63.993,78.205 C63.323,78.205 62.803,78.098 62.433,77.886 C62.063,77.674 61.803,77.395 61.653,77.050 C61.502,76.704 61.427,75.977 61.427,74.868 L61.427,68.595 L60.072,68.595 L60.072,67.158 L61.427,67.158 L61.427,64.457 ZM56.316,68.821 C55.912,68.821 55.549,68.942 55.227,69.185 C54.906,69.428 54.676,69.765 54.539,70.197 C54.334,70.854 54.231,71.572 54.231,72.353 L54.231,78.061 L52.383,78.061 L52.383,67.158 L54.047,67.158 L54.047,68.811 C54.471,68.037 54.863,67.527 55.222,67.281 C55.582,67.034 55.977,66.911 56.408,66.911 C57.031,66.911 57.664,67.110 58.307,67.507 L57.671,69.221 C57.219,68.954 56.767,68.821 56.316,68.821 ZM46.143,76.716 C45.458,77.298 44.800,77.708 44.167,77.948 C43.533,78.187 42.854,78.307 42.129,78.307 C40.931,78.307 40.010,78.015 39.367,77.430 C38.723,76.844 38.402,76.097 38.402,75.186 C38.402,74.652 38.523,74.165 38.766,73.723 C39.009,73.282 39.327,72.928 39.721,72.661 C40.115,72.394 40.558,72.192 41.051,72.055 C41.413,71.959 41.961,71.867 42.693,71.778 C44.185,71.600 45.284,71.388 45.989,71.141 C45.996,70.888 45.999,70.727 45.999,70.659 C45.999,69.906 45.825,69.375 45.476,69.067 C45.003,68.650 44.302,68.441 43.371,68.441 C42.502,68.441 41.860,68.593 41.446,68.898 C41.032,69.202 40.725,69.741 40.527,70.515 L38.720,70.268 C38.884,69.495 39.155,68.871 39.531,68.395 C39.907,67.919 40.452,67.553 41.164,67.296 C41.875,67.040 42.700,66.911 43.638,66.911 C44.569,66.911 45.325,67.021 45.907,67.240 C46.488,67.459 46.916,67.734 47.190,68.066 C47.464,68.398 47.655,68.817 47.765,69.324 C47.827,69.639 47.857,70.207 47.857,71.028 L47.857,73.492 C47.857,75.210 47.897,76.297 47.975,76.752 C48.054,77.207 48.210,77.644 48.443,78.061 L46.512,78.061 C46.321,77.678 46.198,77.229 46.143,76.716 ZM45.989,72.589 C45.318,72.863 44.312,73.095 42.970,73.287 C42.211,73.396 41.673,73.520 41.359,73.656 C41.044,73.793 40.801,73.994 40.630,74.257 C40.458,74.521 40.373,74.813 40.373,75.135 C40.373,75.628 40.559,76.038 40.933,76.367 C41.305,76.695 41.851,76.860 42.570,76.860 C43.282,76.860 43.915,76.704 44.469,76.393 C45.024,76.081 45.431,75.655 45.691,75.114 C45.890,74.697 45.989,74.081 45.989,73.266 L45.989,72.589 ZM27.042,5.381 L46.558,5.381 L46.558,24.681 L27.042,24.681 L27.042,5.381 ZM31.745,20.248 L41.584,20.248 L41.584,9.814 L31.745,9.814 L31.745,20.248 ZM15.202,18.356 C17.419,19.437 23.366,22.951 24.825,23.978 L21.311,27.276 C19.743,25.978 16.230,23.438 13.635,21.654 C11.742,24.573 8.553,27.438 3.255,29.817 C2.606,28.844 1.201,27.276 0.065,26.465 C6.336,24.032 9.148,20.897 10.391,17.869 L0.606,17.869 L0.606,13.869 L4.282,13.869 C3.309,13.220 1.471,12.031 0.444,11.598 C3.147,8.895 5.255,4.949 6.390,0.948 L10.877,1.867 C10.499,3.111 10.067,4.246 9.634,5.435 L23.636,5.435 L23.636,9.436 L16.175,9.436 L16.175,12.247 C16.175,12.788 16.175,13.328 16.121,13.869 L24.987,13.869 L24.987,17.869 L15.365,17.869 L15.202,18.356 ZM11.418,9.436 L7.634,9.436 C6.715,11.166 5.634,12.625 4.498,13.869 L11.364,13.869 C11.418,13.274 11.418,12.733 11.418,12.193 L11.418,9.436 ZM6.183,74.914 C6.508,75.397 7.013,75.787 7.697,76.085 C8.382,76.382 9.152,76.531 10.007,76.531 C10.767,76.531 11.438,76.418 12.020,76.192 C12.601,75.967 13.034,75.657 13.318,75.263 C13.602,74.870 13.744,74.440 13.744,73.975 C13.744,73.502 13.607,73.090 13.334,72.738 C13.060,72.385 12.608,72.089 11.978,71.850 C11.575,71.692 10.681,71.448 9.299,71.115 C7.916,70.784 6.948,70.470 6.393,70.176 C5.675,69.800 5.139,69.333 4.787,68.775 C4.434,68.217 4.258,67.592 4.258,66.901 C4.258,66.141 4.473,65.431 4.905,64.771 C5.336,64.110 5.965,63.609 6.794,63.267 C7.622,62.924 8.542,62.753 9.555,62.753 C10.671,62.753 11.655,62.933 12.507,63.292 C13.359,63.652 14.015,64.180 14.473,64.878 C14.932,65.577 15.178,66.367 15.212,67.250 L13.303,67.394 C13.200,66.442 12.853,65.724 12.261,65.238 C11.669,64.752 10.794,64.509 9.638,64.509 C8.433,64.509 7.555,64.730 7.004,65.171 C6.453,65.612 6.178,66.145 6.178,66.768 C6.178,67.308 6.373,67.753 6.763,68.102 C7.146,68.451 8.147,68.809 9.766,69.175 C11.385,69.541 12.495,69.861 13.098,70.135 C13.974,70.539 14.620,71.050 15.038,71.670 C15.455,72.289 15.664,73.003 15.664,73.810 C15.664,74.611 15.435,75.366 14.976,76.074 C14.518,76.783 13.859,77.334 13.000,77.727 C12.141,78.121 11.174,78.318 10.100,78.318 C8.738,78.318 7.596,78.119 6.676,77.722 C5.755,77.325 5.033,76.728 4.509,75.931 C3.986,75.133 3.710,74.231 3.683,73.225 L5.562,73.061 C5.651,73.814 5.858,74.432 6.183,74.914 ZM21.484,68.687 C21.826,68.154 22.281,67.724 22.849,67.399 C23.417,67.074 24.064,66.911 24.790,66.911 C25.597,66.911 26.259,67.079 26.776,67.414 C27.293,67.750 27.657,68.219 27.870,68.821 C28.732,67.548 29.855,66.911 31.237,66.911 C32.319,66.911 33.150,67.211 33.732,67.810 C34.314,68.409 34.605,69.331 34.605,70.576 L34.605,78.061 L32.767,78.061 L32.767,71.192 C32.767,70.453 32.707,69.921 32.587,69.596 C32.467,69.271 32.250,69.009 31.935,68.811 C31.620,68.612 31.251,68.513 30.827,68.513 C30.060,68.513 29.423,68.768 28.917,69.278 C28.410,69.788 28.157,70.604 28.157,71.726 L28.157,78.061 L26.309,78.061 L26.309,70.977 C26.309,70.156 26.159,69.540 25.857,69.129 C25.556,68.718 25.063,68.513 24.379,68.513 C23.859,68.513 23.378,68.650 22.937,68.924 C22.495,69.197 22.175,69.598 21.977,70.125 C21.778,70.652 21.679,71.412 21.679,72.404 L21.679,78.061 L19.831,78.061 L19.831,67.158 L21.484,67.158 L21.484,68.687 ZM13.094,50.738 L8.120,50.738 L8.120,28.465 L42.017,28.465 L42.017,50.684 L36.881,50.684 L36.881,48.846 L13.094,48.846 L13.094,50.738 ZM36.881,32.466 L13.094,32.466 L13.094,36.682 L36.881,36.682 L36.881,32.466 ZM36.881,44.792 L36.881,40.467 L13.094,40.467 L13.094,44.792 L36.881,44.792 ZM65.216,24.140 L65.216,20.843 L102.951,20.843 L102.951,35.872 L84.083,35.872 C86.516,37.277 89.219,39.385 90.571,40.899 L87.381,43.764 C86.084,42.088 83.164,39.710 80.623,38.196 L83.326,35.872 L64.892,35.872 L64.892,32.574 L98.031,32.574 L98.031,29.871 L67.000,29.871 L67.000,26.735 L98.031,26.735 L98.031,24.140 L65.216,24.140 ZM77.326,44.305 C77.326,45.711 77.866,45.873 81.002,45.873 L91.219,45.873 C93.652,45.873 94.085,45.278 94.355,41.007 C95.436,41.710 97.436,42.359 98.734,42.629 C98.139,48.630 96.679,50.035 91.652,50.035 L80.677,50.035 C74.028,50.035 72.406,48.792 72.406,44.359 L72.406,37.872 L77.326,37.872 L77.326,44.305 ZM77.778,68.811 C78.203,68.037 78.595,67.527 78.954,67.281 C79.313,67.034 79.709,66.911 80.140,66.911 C80.762,66.911 81.396,67.110 82.039,67.507 L81.403,69.221 C80.951,68.954 80.499,68.821 80.047,68.821 C79.643,68.821 79.281,68.942 78.959,69.185 C78.637,69.428 78.408,69.765 78.271,70.197 C78.066,70.854 77.963,71.572 77.963,72.353 L77.963,78.061 L76.115,78.061 L76.115,67.158 L77.778,67.158 L77.778,68.811 ZM89.245,66.911 C90.744,66.911 91.969,67.402 92.920,68.385 C93.871,69.367 94.347,70.724 94.347,72.455 C94.347,73.858 94.137,74.962 93.716,75.766 C93.295,76.571 92.682,77.195 91.878,77.640 C91.074,78.085 90.196,78.307 89.245,78.307 C87.718,78.307 86.485,77.818 85.544,76.839 C84.602,75.860 84.132,74.451 84.132,72.609 C84.132,70.590 84.693,69.095 85.816,68.123 C86.753,67.315 87.896,66.911 89.245,66.911 ZM86.945,75.746 C87.554,76.441 88.321,76.788 89.245,76.788 C90.162,76.788 90.925,76.439 91.534,75.741 C92.143,75.042 92.448,73.978 92.448,72.548 C92.448,71.199 92.142,70.178 91.529,69.483 C90.916,68.788 90.155,68.441 89.245,68.441 C88.321,68.441 87.554,68.787 86.945,69.478 C86.336,70.169 86.031,71.213 86.031,72.609 C86.031,74.006 86.336,75.051 86.945,75.746 ZM98.889,72.661 C99.282,72.394 99.725,72.192 100.218,72.055 C100.581,71.959 101.128,71.867 101.861,71.778 C103.353,71.600 104.451,71.388 105.157,71.141 C105.163,70.888 105.167,70.727 105.167,70.659 C105.167,69.906 104.992,69.375 104.643,69.067 C104.171,68.650 103.469,68.441 102.539,68.441 C101.669,68.441 101.028,68.593 100.613,68.898 C100.199,69.202 99.893,69.741 99.695,70.515 L97.888,70.268 C98.052,69.495 98.322,68.871 98.699,68.395 C99.075,67.919 99.619,67.553 100.331,67.296 C101.043,67.040 101.868,66.911 102.805,66.911 C103.736,66.911 104.493,67.021 105.074,67.240 C105.656,67.459 106.084,67.734 106.358,68.066 C106.631,68.398 106.823,68.817 106.933,69.324 C106.994,69.639 107.025,70.207 107.025,71.028 L107.025,73.492 C107.025,75.210 107.064,76.297 107.143,76.752 C107.222,77.207 107.378,77.644 107.610,78.061 L105.680,78.061 C105.488,77.678 105.365,77.229 105.311,76.716 C104.626,77.298 103.967,77.708 103.334,77.948 C102.701,78.187 102.022,78.307 101.296,78.307 C100.098,78.307 99.178,78.015 98.534,77.430 C97.891,76.844 97.569,76.097 97.569,75.186 C97.569,74.652 97.691,74.165 97.934,73.723 C98.177,73.282 98.495,72.928 98.889,72.661 ZM100.100,76.367 C100.473,76.695 101.019,76.860 101.738,76.860 C102.449,76.860 103.083,76.704 103.637,76.393 C104.191,76.081 104.599,75.655 104.859,75.114 C105.057,74.697 105.157,74.081 105.157,73.266 L105.157,72.589 C104.486,72.863 103.480,73.095 102.138,73.287 C101.378,73.396 100.841,73.520 100.526,73.656 C100.211,73.793 99.968,73.994 99.797,74.257 C99.626,74.521 99.541,74.813 99.541,75.135 C99.541,75.628 99.727,76.038 100.100,76.367 ZM134.135,68.708 C134.935,67.510 136.092,66.911 137.605,66.911 C138.262,66.911 138.866,67.029 139.417,67.265 C139.968,67.502 140.380,67.811 140.654,68.195 C140.928,68.578 141.119,69.033 141.229,69.560 C141.297,69.902 141.332,70.501 141.332,71.357 L141.332,78.061 L139.484,78.061 L139.484,71.429 C139.484,70.676 139.412,70.113 139.268,69.740 C139.124,69.367 138.869,69.069 138.503,68.847 C138.137,68.624 137.707,68.513 137.215,68.513 C136.427,68.513 135.748,68.763 135.177,69.262 C134.605,69.762 134.319,70.710 134.319,72.106 L134.319,78.061 L132.471,78.061 L132.471,67.158 L134.135,67.158 L134.135,68.708 ZM150.324,66.911 C151.781,66.911 152.972,67.408 153.896,68.400 C154.820,69.392 155.282,70.789 155.282,72.589 C155.282,72.698 155.279,72.863 155.272,73.082 L147.141,73.082 C147.209,74.279 147.548,75.196 148.157,75.833 C148.766,76.470 149.526,76.788 150.437,76.788 C151.114,76.788 151.692,76.610 152.172,76.254 C152.651,75.898 153.031,75.330 153.311,74.550 L155.221,74.786 C154.920,75.902 154.362,76.767 153.547,77.383 C152.733,77.999 151.692,78.307 150.426,78.307 C148.831,78.307 147.567,77.816 146.633,76.834 C145.698,75.852 145.231,74.474 145.231,72.702 C145.231,70.867 145.704,69.444 146.648,68.431 C147.593,67.418 148.818,66.911 150.324,66.911 ZM153.332,71.562 C153.250,70.645 153.017,69.957 152.634,69.498 C152.045,68.787 151.282,68.431 150.344,68.431 C149.495,68.431 148.782,68.715 148.204,69.283 C147.625,69.851 147.305,70.611 147.244,71.562 L153.332,71.562 ZM159.562,64.457 L161.400,63.349 L161.400,67.158 L163.258,67.158 L163.258,68.595 L161.400,68.595 L161.400,74.971 C161.400,75.498 161.432,75.837 161.497,75.987 C161.562,76.138 161.668,76.257 161.816,76.346 C161.963,76.435 162.173,76.480 162.447,76.480 C162.652,76.480 162.923,76.456 163.258,76.408 L163.525,78.040 C163.005,78.150 162.539,78.205 162.129,78.205 C161.458,78.205 160.938,78.098 160.568,77.886 C160.199,77.674 159.938,77.395 159.788,77.050 C159.637,76.704 159.562,75.977 159.562,74.868 L159.562,68.595 L158.207,68.595 L158.207,67.158 L159.562,67.158 L159.562,64.457 ZM188.039,66.911 C189.538,66.911 190.763,67.402 191.714,68.385 C192.665,69.367 193.141,70.724 193.141,72.455 C193.141,73.858 192.931,74.962 192.510,75.766 C192.089,76.571 191.476,77.195 190.672,77.640 C189.868,78.085 188.990,78.307 188.039,78.307 C186.512,78.307 185.279,77.818 184.338,76.839 C183.396,75.860 182.926,74.451 182.926,72.609 C182.926,70.590 183.487,69.095 184.610,68.123 C185.547,67.315 186.690,66.911 188.039,66.911 ZM185.739,75.746 C186.348,76.441 187.115,76.788 188.039,76.788 C188.956,76.788 189.719,76.439 190.328,75.741 C190.937,75.042 191.242,73.978 191.242,72.548 C191.242,71.199 190.936,70.178 190.323,69.483 C189.710,68.788 188.949,68.441 188.039,68.441 C187.115,68.441 186.348,68.787 185.739,69.478 C185.130,70.169 184.825,71.213 184.825,72.609 C184.825,74.006 185.130,75.051 185.739,75.746 ZM198.632,68.811 C199.057,68.037 199.449,67.527 199.808,67.281 C200.167,67.034 200.562,66.911 200.994,66.911 C201.616,66.911 202.250,67.110 202.893,67.507 L202.256,69.221 C201.805,68.954 201.353,68.821 200.901,68.821 C200.497,68.821 200.135,68.942 199.813,69.185 C199.491,69.428 199.262,69.765 199.125,70.197 C198.920,70.854 198.817,71.572 198.817,72.353 L198.817,78.061 L196.969,78.061 L196.969,67.158 L198.632,67.158 L198.632,68.811 ZM209.087,27.654 C206.924,24.465 204.492,21.275 202.113,18.518 L205.194,15.815 C207.033,17.815 208.871,20.086 210.655,22.410 C211.411,19.221 212.006,15.815 212.493,12.247 L216.980,12.733 C216.277,17.923 215.304,22.681 214.006,27.060 C216.277,30.357 218.169,33.601 219.358,36.250 L215.953,39.385 C215.034,37.331 213.736,34.898 212.114,32.303 C210.168,37.223 207.627,41.440 204.384,44.683 C203.573,44.035 201.572,42.575 200.491,41.926 C204.329,38.412 207.141,33.493 209.087,27.654 ZM207.532,71.593 L211.906,67.158 L214.298,67.158 L210.129,71.203 L214.719,78.061 L212.439,78.061 L208.836,72.486 L207.532,73.739 L207.532,78.061 L205.684,78.061 L205.684,63.010 L207.532,63.010 L207.532,71.593 ZM248.366,66.911 C249.865,66.911 251.091,67.402 252.042,68.385 C252.993,69.367 253.469,70.724 253.469,72.455 C253.469,73.858 253.259,74.962 252.838,75.766 C252.417,76.571 251.804,77.195 251.000,77.640 C250.196,78.085 249.318,78.307 248.366,78.307 C246.840,78.307 245.606,77.818 244.665,76.839 C243.724,75.860 243.254,74.451 243.254,72.609 C243.254,70.590 243.815,69.095 244.937,68.123 C245.875,67.315 247.018,66.911 248.366,66.911 ZM246.067,75.746 C246.676,76.441 247.442,76.788 248.366,76.788 C249.284,76.788 250.047,76.439 250.656,75.741 C251.265,75.042 251.570,73.978 251.570,72.548 C251.570,71.199 251.263,70.178 250.651,69.483 C250.038,68.788 249.277,68.441 248.366,68.441 C247.442,68.441 246.676,68.787 246.067,69.478 C245.457,70.169 245.153,71.213 245.153,72.609 C245.153,74.006 245.457,75.051 246.067,75.746 ZM259.124,73.205 C259.124,74.170 259.162,74.820 259.237,75.155 C259.354,75.641 259.600,76.023 259.977,76.300 C260.353,76.577 260.818,76.716 261.373,76.716 C261.927,76.716 262.447,76.574 262.933,76.290 C263.419,76.006 263.763,75.619 263.965,75.130 C264.167,74.640 264.268,73.930 264.268,72.999 L264.268,67.158 L266.116,67.158 L266.116,78.061 L264.463,78.061 L264.463,76.459 C263.614,77.691 262.461,78.307 261.003,78.307 C260.360,78.307 259.759,78.184 259.201,77.938 C258.643,77.691 258.229,77.382 257.959,77.009 C257.689,76.636 257.499,76.179 257.389,75.638 C257.314,75.275 257.276,74.700 257.276,73.913 L257.276,67.158 L259.124,67.158 L259.124,73.205 ZM272.203,67.620 C272.928,67.147 273.739,66.911 274.636,66.911 C275.293,66.911 275.878,67.050 276.391,67.327 C276.905,67.604 277.322,67.965 277.644,68.410 L277.644,63.010 L279.482,63.010 L279.482,78.061 L277.767,78.061 L277.767,76.685 C277.076,77.767 276.059,78.307 274.718,78.307 C273.849,78.307 273.050,78.068 272.321,77.589 C271.592,77.110 271.027,76.441 270.627,75.581 C270.226,74.723 270.026,73.735 270.026,72.620 C270.026,71.531 270.207,70.544 270.570,69.658 C270.933,68.771 271.477,68.092 272.203,67.620 ZM272.808,75.751 C273.397,76.442 274.092,76.788 274.892,76.788 C275.700,76.788 276.386,76.458 276.951,75.797 C277.516,75.137 277.798,74.129 277.798,72.774 C277.798,71.281 277.510,70.186 276.936,69.488 C276.361,68.790 275.652,68.441 274.810,68.441 C273.989,68.441 273.303,68.776 272.752,69.447 C272.201,70.118 271.925,71.175 271.925,72.620 C271.925,74.016 272.220,75.060 272.808,75.751 ZM308.213,66.911 C309.712,66.911 310.937,67.402 311.889,68.385 C312.840,69.367 313.316,70.724 313.316,72.455 C313.316,73.858 313.105,74.962 312.685,75.766 C312.264,76.571 311.651,77.195 310.847,77.640 C310.042,78.085 309.165,78.307 308.213,78.307 C306.687,78.307 305.453,77.818 304.512,76.839 C303.571,75.860 303.101,74.451 303.101,72.609 C303.101,70.590 303.662,69.095 304.784,68.123 C305.722,67.315 306.865,66.911 308.213,66.911 ZM305.914,75.746 C306.523,76.441 307.289,76.788 308.213,76.788 C309.130,76.788 309.894,76.439 310.503,75.741 C311.112,75.042 311.417,73.978 311.417,72.548 C311.417,71.199 311.110,70.178 310.498,69.483 C309.885,68.788 309.124,68.441 308.213,68.441 C307.289,68.441 306.523,68.787 305.914,69.478 C305.304,70.169 305.000,71.213 305.000,72.609 C305.000,74.006 305.304,75.051 305.914,75.746 ZM318.828,68.708 C319.628,67.510 320.785,66.911 322.298,66.911 C322.955,66.911 323.559,67.029 324.110,67.265 C324.661,67.502 325.073,67.811 325.347,68.195 C325.621,68.578 325.812,69.033 325.922,69.560 C325.990,69.902 326.025,70.501 326.025,71.357 L326.025,78.061 L324.177,78.061 L324.177,71.429 C324.177,70.676 324.105,70.113 323.961,69.740 C323.817,69.367 323.562,69.069 323.196,68.847 C322.830,68.624 322.400,68.513 321.908,68.513 C321.120,68.513 320.441,68.763 319.870,69.262 C319.298,69.762 319.012,70.710 319.012,72.106 L319.012,78.061 L317.164,78.061 L317.164,67.158 L318.828,67.158 L318.828,68.708 ZM330.879,64.457 L332.717,63.349 L332.717,67.158 L334.575,67.158 L334.575,68.595 L332.717,68.595 L332.717,74.971 C332.717,75.498 332.749,75.837 332.814,75.987 C332.879,76.138 332.985,76.257 333.133,76.346 C333.280,76.435 333.490,76.480 333.764,76.480 C333.969,76.480 334.240,76.456 334.575,76.408 L334.842,78.040 C334.322,78.150 333.856,78.205 333.446,78.205 C332.775,78.205 332.255,78.098 331.885,77.886 C331.516,77.674 331.255,77.395 331.105,77.050 C330.954,76.704 330.879,75.977 330.879,74.868 L330.879,68.595 L329.524,68.595 L329.524,67.158 L330.879,67.158 L330.879,64.457 ZM339.707,68.811 C340.131,68.037 340.523,67.527 340.882,67.281 C341.242,67.034 341.637,66.911 342.068,66.911 C342.691,66.911 343.324,67.110 343.967,67.507 L343.331,69.221 C342.879,68.954 342.427,68.821 341.976,68.821 C341.572,68.821 341.209,68.942 340.887,69.185 C340.566,69.428 340.336,69.765 340.200,70.197 C339.994,70.854 339.892,71.572 339.892,72.353 L339.892,78.061 L338.044,78.061 L338.044,67.158 L339.707,67.158 L339.707,68.811 ZM361.931,78.061 L360.083,78.061 L360.083,63.010 L361.931,63.010 L361.931,78.061 ZM375.685,68.574 C376.082,68.020 376.530,67.604 377.030,67.327 C377.530,67.050 378.135,66.911 378.847,66.911 C379.778,66.911 380.599,67.151 381.311,67.630 C382.023,68.109 382.560,68.785 382.923,69.658 C383.286,70.530 383.467,71.487 383.467,72.527 C383.467,73.643 383.267,74.647 382.867,75.540 C382.466,76.434 381.885,77.118 381.121,77.594 C380.358,78.069 379.556,78.307 378.714,78.307 C378.098,78.307 377.545,78.177 377.056,77.917 C376.566,77.657 376.164,77.329 375.849,76.932 L375.849,82.239 L374.001,82.239 L374.001,67.158 L375.685,67.158 L375.685,68.574 ZM376.527,75.782 C377.095,76.453 377.783,76.788 378.591,76.788 C379.412,76.788 380.115,76.441 380.700,75.746 C381.286,75.051 381.578,73.975 381.578,72.517 C381.578,71.127 381.292,70.087 380.721,69.396 C380.149,68.705 379.467,68.359 378.673,68.359 C377.886,68.359 377.189,68.727 376.583,69.463 C375.978,70.198 375.675,71.268 375.675,72.671 C375.675,74.074 375.959,75.111 376.527,75.782 ZM389.184,78.061 L387.336,78.061 L387.336,63.010 L389.184,63.010 L389.184,78.061 ZM394.424,72.661 C394.817,72.394 395.261,72.192 395.753,72.055 C396.116,71.959 396.664,71.867 397.396,71.778 C398.888,71.600 399.987,71.388 400.692,71.141 C400.698,70.888 400.702,70.727 400.702,70.659 C400.702,69.906 400.527,69.375 400.178,69.067 C399.706,68.650 399.004,68.441 398.074,68.441 C397.204,68.441 396.563,68.593 396.149,68.898 C395.734,69.202 395.428,69.741 395.230,70.515 L393.423,70.268 C393.587,69.495 393.857,68.871 394.234,68.395 C394.610,67.919 395.154,67.553 395.866,67.296 C396.578,67.040 397.403,66.911 398.341,66.911 C399.271,66.911 400.028,67.021 400.610,67.240 C401.191,67.459 401.619,67.734 401.893,68.066 C402.167,68.398 402.358,68.817 402.468,69.324 C402.529,69.639 402.560,70.207 402.560,71.028 L402.560,73.492 C402.560,75.210 402.600,76.297 402.678,76.752 C402.757,77.207 402.913,77.644 403.145,78.061 L401.215,78.061 C401.024,77.678 400.900,77.229 400.846,76.716 C400.161,77.298 399.502,77.708 398.869,77.948 C398.236,78.187 397.557,78.307 396.831,78.307 C395.634,78.307 394.713,78.015 394.070,77.430 C393.426,76.844 393.105,76.097 393.105,75.186 C393.105,74.652 393.226,74.165 393.469,73.723 C393.712,73.282 394.030,72.928 394.424,72.661 ZM395.635,76.367 C396.008,76.695 396.554,76.860 397.273,76.860 C397.985,76.860 398.618,76.704 399.172,76.393 C399.727,76.081 400.134,75.655 400.394,75.114 C400.592,74.697 400.692,74.081 400.692,73.266 L400.692,72.589 C400.021,72.863 399.015,73.095 397.673,73.287 C396.914,73.396 396.376,73.520 396.061,73.656 C395.746,73.793 395.503,73.994 395.332,74.257 C395.161,74.521 395.076,74.813 395.076,75.135 C395.076,75.628 395.262,76.038 395.635,76.367 ZM426.579,66.911 C428.078,66.911 429.303,67.402 430.255,68.385 C431.206,69.367 431.682,70.724 431.682,72.455 C431.682,73.858 431.472,74.962 431.051,75.766 C430.630,76.571 430.017,77.195 429.213,77.640 C428.409,78.085 427.531,78.307 426.579,78.307 C425.053,78.307 423.819,77.818 422.878,76.839 C421.937,75.860 421.467,74.451 421.467,72.609 C421.467,70.590 422.028,69.095 423.150,68.123 C424.088,67.315 425.231,66.911 426.579,66.911 ZM424.280,75.746 C424.889,76.441 425.655,76.788 426.579,76.788 C427.497,76.788 428.260,76.439 428.869,75.741 C429.478,75.042 429.783,73.978 429.783,72.548 C429.783,71.199 429.476,70.178 428.864,69.483 C428.251,68.788 427.490,68.441 426.579,68.441 C425.655,68.441 424.889,68.787 424.280,69.478 C423.670,70.169 423.366,71.213 423.366,72.609 C423.366,74.006 423.670,75.051 424.280,75.746 ZM437.173,68.811 C437.597,68.037 437.989,67.527 438.349,67.281 C438.708,67.034 439.103,66.911 439.534,66.911 C440.157,66.911 440.790,67.110 441.434,67.507 L440.797,69.221 C440.345,68.954 439.894,68.821 439.442,68.821 C439.038,68.821 438.675,68.942 438.354,69.185 C438.032,69.428 437.803,69.765 437.666,70.197 C437.461,70.854 437.358,71.572 437.358,72.353 L437.358,78.061 L435.510,78.061 L435.510,67.158 L437.173,67.158 L437.173,68.811 ZM423.684,50.792 L423.684,27.762 L458.715,27.762 L458.715,50.684 L453.363,50.684 L453.363,47.927 L428.766,47.927 L428.766,50.792 L423.684,50.792 ZM453.363,43.062 L453.363,32.574 L428.766,32.574 L428.766,43.062 L453.363,43.062 ZM445.867,68.687 C446.210,68.154 446.665,67.724 447.233,67.399 C447.801,67.074 448.448,66.911 449.173,66.911 C449.981,66.911 450.643,67.079 451.160,67.414 C451.677,67.750 452.041,68.219 452.253,68.821 C453.116,67.548 454.238,66.911 455.621,66.911 C456.702,66.911 457.534,67.211 458.116,67.810 C458.697,68.409 458.988,69.331 458.988,70.576 L458.988,78.061 L457.151,78.061 L457.151,71.192 C457.151,70.453 457.091,69.921 456.971,69.596 C456.851,69.271 456.634,69.009 456.319,68.811 C456.004,68.612 455.634,68.513 455.210,68.513 C454.443,68.513 453.807,68.768 453.301,69.278 C452.794,69.788 452.541,70.604 452.541,71.726 L452.541,78.061 L450.693,78.061 L450.693,70.977 C450.693,70.156 450.542,69.540 450.241,69.129 C449.940,68.718 449.447,68.513 448.763,68.513 C448.242,68.513 447.762,68.650 447.320,68.924 C446.879,69.197 446.559,69.598 446.360,70.125 C446.162,70.652 446.062,71.412 446.062,72.404 L446.062,78.061 L444.214,78.061 L444.214,67.158 L445.867,67.158 L445.867,68.687 Z"/>
</svg>