<svg 
 xmlns="http://www.w3.org/2000/svg"
 xmlns:xlink="http://www.w3.org/1999/xlink"
 width="96px" height="96px">
<path fill-rule="evenodd"  fill="rgb(218, 37, 28)"
 d="M48.000,96.000 C21.490,96.000 0.000,74.510 0.000,48.000 C0.000,21.490 21.490,0.000 48.000,0.000 C74.510,0.000 96.000,21.490 96.000,48.000 C96.000,74.510 74.510,96.000 48.000,96.000 ZM48.000,88.388 C64.282,88.388 78.312,78.752 84.703,64.873 L76.117,59.806 L76.117,59.796 L51.883,45.670 L51.883,21.126 L44.272,21.126 L44.272,45.670 L19.675,60.008 C19.667,59.987 19.658,59.965 19.649,59.944 L11.297,64.873 C17.688,78.752 31.718,88.388 48.000,88.388 ZM7.612,48.000 C7.612,51.688 8.109,55.259 9.035,58.654 L17.751,53.589 C17.418,51.776 17.243,49.909 17.243,48.000 C17.243,32.062 29.366,18.956 44.893,17.398 L44.893,7.729 C24.039,9.316 7.612,26.739 7.612,48.000 ZM51.417,7.757 L51.417,17.433 C66.796,19.133 78.757,32.169 78.757,48.000 C78.757,49.909 78.582,51.776 78.249,53.589 L86.965,58.654 C87.891,55.259 88.388,51.688 88.388,48.000 C88.388,26.845 72.124,9.492 51.417,7.757 ZM48.000,52.350 L72.388,66.485 L72.607,66.455 C66.995,73.925 58.062,78.757 48.000,78.757 C37.949,78.757 29.024,73.935 23.412,66.479 L23.456,66.485 L48.000,52.350 Z"/>
</svg>